PathFileType	4	(X/Y/Z)	pose_F01_0-96.trc
DataRate	CameraRate	NumFrames	NumMarkers	Units	OrigDataRate	OrigDataStartFrame	OrigNumFrames
30	30	7	21	m	30	36	96
Frame#	Time	CHip			RHip			RKnee			RAnkle			RBigToe			RSmallToe			RHeel			LHip			LKnee			LAnkle			LBigToe			LSmallToe			LHeel			Neck			Nose			RShoulder			RElbow			RWrist			LShoulder			LElbow			LWrist			
		X1	Y1	Z1	X2	Y2	Z2	X3	Y3	Z3	X4	Y4	Z4	X5	Y5	Z5	X6	Y6	Z6	X7	Y7	Z7	X8	Y8	Z8	X9	Y9	Z9	X10	Y10	Z10	X11	Y11	Z11	X12	Y12	Z12	X13	Y13	Z13	X14	Y14	Z14	X15	Y15	Z15	X16	Y16	Z16	X17	Y17	Z17	X18	Y18	Z18	X19	Y19	Z19	X20	Y20	Z20	X21	Y21	Z21	
36	1.2	-0.18549611691061654	1.8859689227401648	-0.5299925175248784	-0.1974772489325428	1.8832116848315479	-0.46847873636431525	-0.19255498886757508	1.7380000267463167	-0.431164867993288	-0.20375313894620975	1.577355519591135	-0.4410900501848506							-0.16603952191095933	1.5915767090451818	-0.37449998942640605	-0.16880974844254373	1.8890510520255686	-0.5874734739229535	-0.17482134723171447	1.7475641830861506	-0.6025041369762043	-0.1606140945889085	1.590811343536689	-0.6247405823836192	-0.19893513788473818	1.538928917129435	-0.6463707615747111	-0.17985252310504413	1.5486888297707833	-0.6665932651361185	-0.15394508350499883	1.5770227721609664	-0.6130564244391563	-0.1782389988794074	2.052277835241136	-0.5361551370661495	-0.21114640973046675	2.1124367245486853	-0.5709925732148791	-0.19700054827858898	2.04732188087055	-0.4644967500321418	-0.2555321337569535	1.993536049486749	-0.44180789329322884	-0.2574076726137562	2.062066464832406	-0.4534278879064498	-0.15951142269889435	2.0587640497698283	-0.6145816502808805	-0.18585370035444645	2.0037758294910044	-0.6759560631210981	-0.22681775791790887	2.0509757399501605	-0.5997619690577853
37	1.2333333333333334	-0.18104554965239217	1.8834069376955487	-0.52222868170136	-0.194608206841113	1.8803152794419256	-0.4582250198772097	-0.18979808943445156	1.7365012384564709	-0.42986253521231726	-0.20375313894620975	1.577355519591135	-0.4410900501848506							-0.16603952191095933	1.5915767090451818	-0.37449998942640605	-0.16715134142009744	1.8876834479989895	-0.5810025660750787	-0.1713281449753802	1.740896746617916	-0.6010852985236189	-0.158084624529112	1.584095977814494	-0.6258302714975855	-0.20636929205953664	1.5342604484528268	-0.637792881577637	-0.3083655017190054	1.4827770806630771	-1.0946792182542806	-0.1476870566918247	1.5708545282126352	-0.6181194120717687	-0.17542246590798038	2.051079848077297	-0.5352820610624267	-0.21143744630381262	2.1113093295430154	-0.5636101828238752	-0.19213645800154103	2.047115294746037	-0.45706499046024324	-0.250552113659937	1.990262816098248	-0.4337864101409335	-0.2526329979330449	2.0612024632929034	-0.4348730319267455	-0.15867095781340318	2.056318060692389	-0.6110504508488909	-0.1895956058064581	1.9998457086467705	-0.6683331011936922	-0.22778104827257528	2.048049901750272	-0.5837432857216526
38	1.2666666666666666	-0.17772741304566986	1.886659405447941	-0.5127264485368225	-0.1904070694593723	1.8825551107179737	-0.45399458408353743	-0.18894407779609224	1.7385503277978973	-0.4308084580855257	-0.20375313894620975	1.577355519591135	-0.4410900501848506							-0.16603952191095933	1.5915767090451818	-0.37449998942640605	-0.1658396314996159	1.8889307955987285	-0.5776397422888553	-0.1683707622455046	1.7431748424626712	-0.6043343793921203	-0.15952059866637255	1.58598002375733	-0.6247713803731906	-0.20176720081262653	1.5363296319987008	-0.6429099491527307	-0.303836591619681	1.4830253194738596	-1.101631542967654	-0.15101730279683837	1.570807968854377	-0.6149235872006821	-0.1763105695989497	2.0519121839634895	-0.5297660034763237	-0.20372991865771656	2.1069984485570803	-0.5452615670557673	-0.18820030321780984	2.047174321675939	-0.45281014781029644	-0.24576413253814447	1.991794763701233	-0.4195968816678741	-0.2527056993298166	2.0598853891417503	-0.43504057160775766	-0.15603973758474934	2.0569280011268147	-0.6014803336504724	-0.18717896524246527	2.000301937567648	-0.6502624720924794	-0.23142581374439525	2.04397873270591	-0.5770204706023692
39	1.3	-0.1759760341138001	1.8840032452894129	-0.505808711525041	-0.18930824173244323	1.881668501190811	-0.45024511129052175	-0.1878069058934071	1.7371582334748221	-0.427399206810209	-0.20375313894620975	1.577355519591135	-0.4410900501848506							-0.16603952191095933	1.5915767090451818	-0.37449998942640605	-0.16232088459988217	1.8884866501941417	-0.5645048303090745	-0.16625472830405294	1.7466139563260399	-0.5985965917497065	-0.15700321945461834	1.5951712275883672	-0.6293683642631324	-0.1974466915966477	1.536812541316674	-0.6473131289442791	-0.3018847681626628	1.482345689162977	-1.104894798548398	-0.15187213651013373	1.577726124904177	-0.615698826295602	-0.17361587258756586	2.0491056532404324	-0.5198959934085924	-0.20059010225382398	2.0982351034622564	-0.5319273850053621	-0.18620568329476608	2.046863115305475	-0.4463658028250113	-0.24214248499202212	1.9846583929775914	-0.398641075002797	-0.25328409461708506	2.0519871292934346	-0.43425068110335124	-0.1544220075342571	2.0541025854925365	-0.5947921729732301	-0.18651081396898486	1.9975358855453382	-0.6470424398828938	-0.2308230737600092	2.043065402191778	-0.5746356848147579
40	1.3333333333333333	-0.17557555368522282	1.8800254664040934	-0.5049205550594656	-0.18725182151581754	1.877956640361945	-0.44285183591807886	-0.18752082840677525	1.7345140031440494	-0.42297050594086194	-0.20375313894620975	1.577355519591135	-0.4410900501848506							-0.16603952191095933	1.5915767090451818	-0.37449998942640605	-0.16217383458162987	1.8846565965343232	-0.5639195665669502	-0.16351020483774348	1.7456101805005444	-0.597128688610476	-0.15558746941282278	1.5961161812804059	-0.6308133280276483	-0.19616008682578334	1.5381838775489114	-0.6446832386283946	-0.30193020886040106	1.4820295049066983	-1.1049385132442597	-0.15083051903826517	1.578340193763412	-0.6166971594158016	-0.17184131687536297	2.0475579669388	-0.5136069471047554	-0.20096601852737256	2.100971812227599	-0.5437018794327111	-0.18844635089434555	2.041825586428243	-0.4437796688614412	-0.24013395207930538	1.9852893162081642	-0.40075289097214445	-0.25056563937902343	2.0521456326535157	-0.43022550781670116	-0.153484099721404	2.052631461030621	-0.5918309301631264	-0.18659746896125018	1.9980503712831286	-0.6474044621081964	-0.20270493469960912	2.0576932706301165	-0.602497412126053
41	1.3666666666666667	-0.1745924874650274	1.8774934591178503	-0.5011916725836002	-0.18426235109551672	1.8732633976083894	-0.4322320252202945	-0.18810393588812493	1.734773426749608	-0.41772823328157777	-0.20375313894620975	1.577355519591135	-0.4410900501848506							-0.16603952191095933	1.5915767090451818	-0.37449998942640605	-0.1581885526764894	1.8791308282124244	-0.5589479724424451	-0.16230403364200532	1.7452683499853032	-0.5899549773193976	-0.1562558264358371	1.5911000112216922	-0.629173732876595	-0.19580785163361805	1.539557777170936	-0.6451668796519956	-0.2992666821521051	1.4855010362236447	-1.1084774146715184	-0.14905049955773647	1.5766041077575312	-0.6138035153648768	-0.16810433856523854	2.0474438470345517	-0.5095205305230232	-0.20083380542038806	2.1011606381755277	-0.5428312035470004	-0.18841980753167586	2.0413861175339325	-0.4351391711481352	-0.23921286612945974	1.9839116445691791	-0.3976693961258499	-0.24784718414096182	2.0523041360135967	-0.4262003345300511	-0.1505781275611374	2.051197776872809	-0.5906106803270109	-0.18214012713557676	2.0016431733096423	-0.6525082277792079	-0.20065503079325897	2.0647246438209237	-0.6110415274751845
42	1.4	-0.1706618334332534	1.8723517334938646	-0.5049231309950053	-0.1823556450339095	1.8705093798971464	-0.434094084049823	-0.18935365620799097	1.7337817911073663	-0.42075520229661634	-0.20375313894620975	1.577355519591135	-0.4410900501848506							-0.16603952191095933	1.5915767090451818	-0.37449998942640605	-0.15628544158922936	1.8750999257076502	-0.5606938711889217	-0.16487231565007987	1.738336931920863	-0.5990709801074574	-0.15150039621153397	1.5937415013508611	-0.6130817723273263	-0.18667801085740315	1.5433757250684086	-0.638234999824369	-0.1717825033219874	1.5547626211444339	-0.6624342604516884	-0.14521857283701817	1.579712328787538	-0.6055242882963981	-0.16814770307786006	2.046416497163698	-0.5096070799531603	-0.20056757317429744	2.107306643494169	-0.5437205175643924	-0.1865541537942728	2.040543546753899	-0.43741090821903517	-0.23602219789436804	1.9832294713650216	-0.38735948271625753	-0.24840952060529745	2.0587555366691723	-0.42958266829532427	-0.14861034673318538	2.051262959891861	-0.5928424468669005	-0.18589490861651164	2.0051048823058903	-0.6562337543509826	-0.1986051268869088	2.071756017011731	-0.6195856428243159
